# Blender v2.82 (sub 7) OBJ File: ''
# www.blender.org
o Cone
v 0.000000 -1.000000 -1.000000
v 0.195090 -1.000000 -0.980785
v 0.382683 -1.000000 -0.923880
v 0.555570 -1.000000 -0.831470
v 0.707107 -1.000000 -0.707107
v 0.831470 -1.000000 -0.555570
v 0.923880 -1.000000 -0.382683
v 0.980785 -1.000000 -0.195090
v 1.000000 -1.000000 -0.000000
v 0.980785 -1.000000 0.195090
v 0.923880 -1.000000 0.382683
v 0.831470 -1.000000 0.555570
v 0.707107 -1.000000 0.707107
v 0.555570 -1.000000 0.831470
v 0.382683 -1.000000 0.923880
v 0.195090 -1.000000 0.980785
v -0.000000 -1.000000 1.000000
v -0.195091 -1.000000 0.980785
v -0.382684 -1.000000 0.923879
v -0.555571 -1.000000 0.831469
v -0.707107 -1.000000 0.707106
v -0.831470 -1.000000 0.555570
v -0.923880 -1.000000 0.382683
v 0.000000 1.000000 0.000000
v -0.980785 -1.000000 0.195089
v -1.000000 -1.000000 -0.000001
v -0.980785 -1.000000 -0.195091
v -0.923879 -1.000000 -0.382684
v -0.831469 -1.000000 -0.555571
v -0.707106 -1.000000 -0.707108
v -0.555569 -1.000000 -0.831470
v -0.382682 -1.000000 -0.923880
v -0.195089 -1.000000 -0.980786
v 0.000000 -1.000000 -1.000000
v 0.195090 -1.000000 -0.980785
v 0.382683 -1.000000 -0.923880
v 0.555570 -1.000000 -0.831470
v 0.707107 -1.000000 -0.707107
v 0.831470 -1.000000 -0.555570
v 0.923880 -1.000000 -0.382683
v 0.980785 -1.000000 -0.195090
v 1.000000 -1.000000 -0.000000
v 0.980785 -1.000000 0.195090
v 0.923880 -1.000000 0.382683
v 0.831470 -1.000000 0.555570
v 0.707107 -1.000000 0.707107
v 0.555570 -1.000000 0.831470
v 0.382683 -1.000000 0.923880
v 0.195090 -1.000000 0.980785
v -0.000000 -1.000000 1.000000
v -0.195091 -1.000000 0.980785
v -0.382684 -1.000000 0.923879
v -0.555571 -1.000000 0.831469
v -0.707107 -1.000000 0.707106
v -0.831470 -1.000000 0.555570
v -0.923880 -1.000000 0.382683
v -0.980785 -1.000000 0.195089
v -1.000000 -1.000000 -0.000001
v -0.980785 -1.000000 -0.195091
v -0.923879 -1.000000 -0.382684
v -0.831469 -1.000000 -0.555571
v -0.707106 -1.000000 -0.707108
v -0.555569 -1.000000 -0.831470
v -0.382682 -1.000000 -0.923880
v -0.195089 -1.000000 -0.980786
vt 0.462304 0.398711
vt 0.757901 0.000000
vt 0.491955 0.422495
vt 0.526589 0.444324
vt 0.564873 0.463358
vt 0.605339 0.478866
vt 0.646429 0.490251
vt 0.686565 0.497078
vt 0.724205 0.499082
vt 0.757901 0.496187
vt 0.000000 0.843968
vt 0.293186 0.448511
vt 0.025146 0.867079
vt 0.056328 0.888721
vt 0.092350 0.908060
vt 0.131826 0.924354
vt 0.173240 0.936977
vt 0.214999 0.945444
vt 0.255500 0.949429
vt 0.293186 0.948780
vt 0.731960 0.917650
vt 1.000000 0.499082
vt 0.763143 0.939291
vt 0.799165 0.958631
vt 0.838641 0.974925
vt 0.880054 0.987548
vt 0.921814 0.996015
vt 0.962315 1.000000
vt 1.000000 0.999350
vt 0.731960 0.499731
vt 0.731960 1.000000
vt 0.694275 0.499082
vt 0.653774 0.503067
vt 0.612015 0.511533
vt 0.570601 0.524157
vt 0.531125 0.540451
vt 0.495103 0.559790
vt 0.463920 0.581431
vt 0.438775 0.604543
vt 0.438775 0.373885
vt 0.197779 0.448511
vt 0.240995 0.000000
vt 0.438775 0.246343
vt 0.000000 0.202168
vt 0.008431 0.289668
vt 0.000000 0.246343
vt 0.048978 0.367210
vt 0.024969 0.330480
vt 0.079536 0.398446
vt 0.115468 0.422988
vt 0.155394 0.439893
vt 0.283380 0.439893
vt 0.240995 0.448511
vt 0.359239 0.398446
vt 0.323306 0.422988
vt 0.413806 0.330480
vt 0.389797 0.367210
vt 0.430344 0.289668
vt 0.430344 0.158842
vt 0.438775 0.202168
vt 0.389797 0.081301
vt 0.413806 0.118031
vt 0.323306 0.025523
vt 0.359239 0.050065
vt 0.283380 0.008618
vt 0.155394 0.008618
vt 0.197780 0.000000
vt 0.115468 0.025523
vt 0.079536 0.050065
vt 0.024969 0.118031
vt 0.048978 0.081301
vt 0.008431 0.158843
vn 0.0000 0.4472 -0.8944
vn 0.0000 1.0000 0.0000
vn 0.1745 0.4472 -0.8772
vn 0.3423 0.4472 -0.8263
vn 0.4969 0.4472 -0.7437
vn 0.6324 0.4472 -0.6324
vn 0.7437 0.4472 -0.4969
vn 0.8263 0.4472 -0.3423
vn 0.8772 0.4472 -0.1745
vn 0.8944 0.4472 0.0000
vn 0.8772 0.4472 0.1745
vn 0.8263 0.4472 0.3423
vn 0.7437 0.4472 0.4969
vn 0.6324 0.4472 0.6324
vn 0.4969 0.4472 0.7437
vn 0.3423 0.4472 0.8263
vn 0.1745 0.4472 0.8772
vn 0.0000 0.4472 0.8944
vn -0.1745 0.4472 0.8772
vn -0.3423 0.4472 0.8263
vn -0.4969 0.4472 0.7437
vn -0.6324 0.4472 0.6324
vn -0.7437 0.4472 0.4969
vn -0.8263 0.4472 0.3423
vn -0.8772 0.4472 0.1745
vn -0.8944 0.4472 0.0000
vn -0.8772 0.4472 -0.1745
vn -0.8263 0.4472 -0.3423
vn -0.7437 0.4472 -0.4969
vn -0.6324 0.4472 -0.6324
vn -0.4969 0.4472 -0.7437
vn -0.3423 0.4472 -0.8263
vn -0.1745 0.4472 -0.8772
vn 0.0000 -1.0000 0.0000
s 1
f 34/1/1 24/2/2 35/3/3
f 35/3/3 24/2/2 36/4/4
f 36/4/4 24/2/2 37/5/5
f 37/5/5 24/2/2 38/6/6
f 38/6/6 24/2/2 39/7/7
f 39/7/7 24/2/2 40/8/8
f 40/8/8 24/2/2 41/9/9
f 41/9/9 24/2/2 42/10/10
f 42/11/10 24/12/2 43/13/11
f 43/13/11 24/12/2 44/14/12
f 44/14/12 24/12/2 45/15/13
f 45/15/13 24/12/2 46/16/14
f 46/16/14 24/12/2 47/17/15
f 47/17/15 24/12/2 48/18/16
f 48/18/16 24/12/2 49/19/17
f 49/19/17 24/12/2 50/20/18
f 50/21/18 24/22/2 51/23/19
f 51/23/19 24/22/2 52/24/20
f 52/24/20 24/22/2 53/25/21
f 53/25/21 24/22/2 54/26/22
f 54/26/22 24/22/2 55/27/23
f 55/27/23 24/22/2 56/28/24
f 56/28/24 24/22/2 57/29/25
f 57/30/25 24/31/2 58/32/26
f 58/32/26 24/31/2 59/33/27
f 59/33/27 24/31/2 60/34/28
f 60/34/28 24/31/2 61/35/29
f 61/35/29 24/31/2 62/36/30
f 62/36/30 24/31/2 63/37/31
f 63/37/31 24/31/2 64/38/32
f 64/38/32 24/31/2 65/39/33
f 65/40/33 24/2/2 34/1/1
f 27/41/34 10/42/34 18/43/34
f 2/44/34 33/45/34 1/46/34
f 33/45/34 31/47/34 32/48/34
f 31/47/34 27/41/34 30/49/34
f 30/49/34 27/41/34 29/50/34
f 29/50/34 27/41/34 28/51/34
f 27/41/34 25/52/34 26/53/34
f 25/52/34 22/54/34 23/55/34
f 22/54/34 20/56/34 21/57/34
f 20/56/34 22/54/34 19/58/34
f 19/58/34 22/54/34 18/43/34
f 18/43/34 16/59/34 17/60/34
f 16/59/34 14/61/34 15/62/34
f 14/61/34 12/63/34 13/64/34
f 12/63/34 14/61/34 11/65/34
f 11/65/34 14/61/34 10/42/34
f 10/42/34 8/66/34 9/67/34
f 8/66/34 10/42/34 7/68/34
f 7/68/34 10/42/34 6/69/34
f 6/69/34 4/70/34 5/71/34
f 4/70/34 2/44/34 3/72/34
f 2/44/34 27/41/34 33/45/34
f 33/45/34 27/41/34 31/47/34
f 27/41/34 18/43/34 25/52/34
f 25/52/34 18/43/34 22/54/34
f 18/43/34 14/61/34 16/59/34
f 6/69/34 2/44/34 4/70/34
f 18/43/34 10/42/34 14/61/34
f 10/42/34 2/44/34 6/69/34
f 2/44/34 10/42/34 27/41/34
