# Blender v2.82 (sub 7) OBJ File: 'models.blend'
# www.blender.org
o Cube.001_Cube.002
v 0.589443 -0.000000 0.522360
v 0.000000 0.589443 0.522360
v -0.589443 -0.000000 0.522360
v 1.089443 -1.000000 -0.477640
v 1.089443 1.000000 -0.477640
v -1.000000 -1.089443 -0.477640
v -1.000000 1.089443 -0.477640
v -1.089443 -1.000000 -0.477640
v 0.000000 -0.589443 0.522360
v -1.089443 1.000000 -0.477640
v 1.000000 -1.089443 -0.477640
v 1.000000 1.089443 -0.477640
v 0.500000 -0.000000 0.477640
v 0.000000 0.500000 0.477640
v -0.500000 -0.000000 0.477640
v 1.000000 -1.000000 -0.522360
v 1.000000 1.000000 -0.522360
v -1.000000 -1.000000 -0.522360
v -1.000000 1.000000 -0.522360
v -1.000000 -1.000000 -0.522360
v 0.000000 -0.500000 0.477640
v -1.000000 1.000000 -0.522360
v 1.000000 -1.000000 -0.522360
v 1.000000 1.000000 -0.522360
vt 0.334173 0.224958
vt 0.582398 0.000000
vt 0.582398 0.449916
vt 0.813212 0.449916
vt 0.813212 0.899832
vt 0.662834 0.674874
vt 0.662834 0.787245
vt 0.334173 0.748232
vt 0.662834 0.449916
vt 0.249299 0.782152
vt 0.000000 0.563718
vt 0.249299 0.337437
vt 0.334173 0.337437
vt 0.000000 0.299944
vt 0.334173 0.000000
vt 0.782899 0.449916
vt 0.582398 0.224958
vt 0.782899 0.000000
vt 0.850367 0.706727
vt 0.979315 0.451671
vt 0.979315 0.896386
vt 0.931069 0.000000
vt 0.931069 0.444715
vt 0.802122 0.189659
vt 0.311818 0.671324
vt 0.311817 0.337788
vt 0.334116 0.337437
vt 0.334116 0.670973
vt 0.996693 0.000000
vt 0.996693 0.332427
vt 0.975030 0.333420
vt 0.975030 0.000993
vt 0.271716 0.337437
vt 0.271716 0.787353
vt 0.249299 0.787353
vt 0.249299 0.337437
vt 0.311817 0.341936
vt 0.311817 0.744356
vt 0.291767 0.739857
vt 0.291767 0.337437
vt 0.291767 0.337437
vt 0.291767 0.739857
vt 0.271716 0.744356
vt 0.271716 0.341936
vt 0.831145 0.449916
vt 0.831145 0.899832
vt 0.334116 0.673514
vt 0.334116 1.000000
vt 0.313431 0.997809
vt 0.313431 0.671324
vt 0.953367 0.000351
vt 0.953367 0.333887
vt 0.931069 0.333536
vt 0.931069 0.000000
vt 0.975030 0.000993
vt 0.975030 0.333420
vt 0.953367 0.332427
vt 0.953367 0.000000
vt 0.831145 0.704972
vt 0.960093 0.449916
vt 0.911847 0.446470
vt 0.782899 0.191414
vt 1.000000 0.449916
vt 1.000000 0.776402
vt 0.979315 0.778593
vt 0.979315 0.452107
vn -0.8944 0.0000 0.4472
vn 0.8944 0.0000 0.4472
vn 0.0000 -0.8944 0.4472
vn 0.0000 0.8944 0.4472
vn 0.8944 0.0000 -0.4472
vn -0.8944 0.0000 -0.4472
vn -0.0000 0.8944 -0.4472
vn -0.0000 -0.8944 -0.4472
vn 0.2981 -0.7454 0.5963
vn -0.7454 -0.2981 0.5963
vn -0.4472 0.0000 -0.8944
vn -0.0000 -0.4472 -0.8944
vn -0.0000 0.4472 -0.8944
vn 0.4472 0.0000 -0.8944
vn -0.2981 -0.7454 0.5963
vn 0.2981 0.7454 0.5963
vn -0.7454 0.2981 0.5963
vn 0.7454 0.2981 0.5963
vn 0.7454 -0.2981 0.5963
vn -0.2981 0.7454 0.5963
s off
f 3/1/1 10/2/1 8/3/1
f 4/4/2 5/5/2 1/6/2
f 9/7/3 6/8/3 11/9/3
f 7/10/4 2/11/4 12/12/4
f 15/13/5 20/14/5 22/15/5
f 16/16/6 13/17/6 17/18/6
f 21/19/7 23/20/7 18/21/7
f 19/22/8 24/23/8 14/24/8
f 3/25/9 8/26/9 20/27/9 15/28/9
f 2/29/10 7/30/10 19/31/10 14/32/10
f 8/33/11 10/34/11 22/35/11 20/36/11
f 11/37/12 6/38/12 18/39/12 23/40/12
f 7/41/13 12/42/13 24/43/13 19/44/13
f 5/5/14 4/4/14 16/45/14 17/46/14
f 4/47/15 1/48/15 13/49/15 16/50/15
f 10/51/16 3/52/16 15/53/16 22/54/16
f 6/55/17 9/56/17 21/57/17 18/58/17
f 9/59/18 11/60/18 23/20/18 21/19/18
f 12/61/19 2/62/19 14/24/19 24/23/19
f 1/63/20 5/64/20 17/65/20 13/66/20
